<?xml version="1.0" standalone="no"?>
<!DOCTYPE svg PUBLIC "-//W3C//DTD SVG 20010904//EN"
 "http://www.w3.org/TR/2001/REC-SVG-20010904/DTD/svg10.dtd">
<svg version="1.0" xmlns="http://www.w3.org/2000/svg"
 width="512.000000pt" height="512.000000pt" viewBox="0 0 512.000000 512.000000"
 preserveAspectRatio="xMidYMid meet">

<g transform="translate(0.000000,512.000000) scale(0.100000,-0.100000)"
fill="#000000" stroke="none">
<path d="M2408 5049 c-506 -27 -990 -215 -1413 -548 -90 -70 -305 -286 -376
-376 -302 -382 -488 -829 -539 -1290 -14 -128 -14 -421 0 -550 50 -459 238
-909 539 -1290 71 -91 286 -305 378 -379 378 -298 828 -485 1293 -536 134 -15
405 -15 540 0 464 50 911 236 1295 539 90 71 305 286 376 376 302 383 487 826
539 1290 14 129 14 421 0 550 -52 464 -237 907 -538 1290 -78 98 -301 319
-402 397 -495 382 -1066 560 -1692 527z m-363 -1201 c72 -18 159 -70 216 -129
72 -73 99 -139 99 -244 0 -71 1 -75 25 -81 56 -14 102 -109 89 -182 -15 -81
-53 -122 -115 -122 -34 0 -37 -3 -43 -34 -16 -83 -105 -200 -193 -252 -137
-80 -340 -66 -463 32 -63 50 -118 128 -138 195 -17 59 -17 59 -55 59 -83 0
-139 112 -106 211 14 42 54 85 84 93 21 5 23 12 27 98 5 112 25 156 104 235
117 118 298 164 469 121z m1995 -228 l0 -110 -510 0 -510 0 0 110 0 110 510 0
510 0 0 -110z m-220 -370 l0 -110 -400 0 -400 0 0 110 0 110 400 0 400 0 0
-110z m-250 -380 l0 -110 -275 0 -275 0 0 110 0 110 275 0 275 0 0 -110z
m-1850 -218 c143 -72 261 -69 407 9 l73 38 66 -31 66 -31 -23 -18 c-42 -33
-172 -97 -234 -115 -81 -24 -239 -24 -319 0 -64 19 -196 83 -235 114 l-24 19
64 31 c35 16 66 30 69 29 3 -1 43 -21 90 -45z m-223 -89 c276 -189 553 -189
837 2 l69 47 90 -26 c50 -15 92 -28 95 -30 2 -2 -3 -15 -11 -28 -9 -12 -25
-55 -37 -94 l-21 -71 -592 -208 c-326 -114 -598 -210 -605 -213 -11 -4 -13 25
-7 164 7 192 -5 294 -49 390 -15 31 -25 59 -23 61 5 4 159 50 174 52 7 0 43
-20 80 -46z m-291 -78 c43 -94 67 -288 48 -385 l-7 -32 -111 6 c-61 4 -128 12
-148 17 l-38 10 0 117 c0 64 5 135 11 157 13 48 76 112 140 142 67 33 77 30
105 -32z m1523 31 c26 -14 62 -37 80 -52 56 -47 65 -75 69 -226 l4 -137 -38
-10 c-22 -5 -89 -13 -151 -17 l-112 -7 -7 28 c-11 44 3 255 21 315 24 76 53
130 71 130 8 0 36 -11 63 -24z m861 -292 c0 -258 -1 -276 -17 -270 -29 11
-453 257 -458 266 -4 7 448 277 468 279 4 1 7 -123 7 -275z m322 133 c125 -72
224 -135 220 -138 -15 -15 -461 -269 -472 -269 -7 0 -10 91 -10 276 0 254 1
276 17 270 9 -4 119 -66 245 -139z m-1397 -280 c4 -117 6 -221 4 -231 -3 -15
-82 -47 -379 -151 l-375 -132 -3 230 c-1 127 1 234 5 238 9 9 712 258 729 258
8 1 14 -63 19 -212z m820 -57 c116 -66 213 -124 217 -128 6 -6 -460 -282 -476
-282 -3 0 -6 126 -6 280 l0 281 28 -15 c15 -8 122 -69 237 -136z m832 -407
c-5 -4 -471 265 -474 275 -1 4 104 68 235 143 l237 136 3 -275 c1 -151 1 -277
-1 -279z m-3044 404 l127 -11 0 -378 0 -378 -150 0 -150 0 0 396 0 396 23 -6
c12 -4 79 -12 150 -19z m1757 -372 l0 -395 -150 0 -150 0 0 379 0 379 103 7
c56 3 118 10 137 15 19 4 41 8 48 9 9 1 12 -84 12 -394z m-1182 128 l-3 -236
-69 -24 c-39 -12 -76 -23 -83 -23 -11 0 -13 45 -11 231 l3 232 75 28 c41 15
78 28 83 28 4 1 6 -105 5 -236z m-230 -80 l-3 -236 -69 -24 c-39 -12 -74 -23
-78 -23 -4 0 -8 105 -8 233 l0 232 73 27 c39 14 75 27 80 27 4 1 6 -105 5
-236z m2122 -139 c0 -258 -1 -276 -17 -270 -29 11 -453 257 -458 266 -4 7 448
277 468 279 4 1 7 -123 7 -275z m322 133 c125 -72 224 -135 220 -138 -15 -15
-461 -269 -472 -269 -7 0 -10 91 -10 276 0 254 1 276 17 270 9 -4 119 -66 245
-139z m-1392 -182 l0 -255 -606 0 -605 0 3 46 3 46 590 208 c325 115 596 209
603 209 9 1 12 -56 12 -254z"/>
<path d="M1740 3475 c-30 -18 -77 -44 -104 -57 l-48 -23 4 -145 c6 -174 24
-232 93 -303 63 -63 124 -91 212 -95 106 -6 163 16 239 92 84 84 95 122 92
297 l-3 134 -75 6 c-120 10 -230 48 -307 105 -17 13 -35 24 -40 23 -4 0 -33
-16 -63 -34z"/>
<path d="M2091 1958 c0 -78 2 -84 27 -104 45 -35 64 -37 110 -7 l42 27 0 83 0
83 -90 0 -90 0 1 -82z"/>
</g>
</svg>
